<svg xmlns="http://www.w3.org/2000/svg" width="1024" height="512" viewBox="0 0 1024 512">
  <!-- World map with accurate continental boundaries -->
  <defs>
    <linearGradient id="landGradient" x1="0%" y1="0%" x2="100%" y2="100%">
      <stop offset="0%" stop-color="#6d28d9" stop-opacity="0.9" />
      <stop offset="100%" stop-color="#4c1d95" stop-opacity="0.8" />
    </linearGradient>
    <filter id="glow" x="-20%" y="-20%" width="140%" height="140%">
      <feGaussianBlur stdDeviation="2" result="blur" />
      <feComposite in="SourceGraphic" in2="blur" operator="over" />
    </filter>
  </defs>
  
  <!-- Background (ocean) is transparent -->
  <rect width="1024" height="512" fill="none" />
  
  <!-- North America with precise boundaries -->
  <path d="M148,90 L146,92 L144,94 L142,96 L140,98 L138,100 L136,102 L134,104 L132,106 L130,108 L128,110 L126,112 L124,114 L122,116 L120,118 L118,120 L116,122 L114,124 L112,126 L110,128 L108,130 L106,132 L104,134 L102,136 L100,138 L98,140 L96,142 L94,144 L92,146 L90,148 L88,150 L86,152 L84,154 L82,156 L80,158 L78,160 L76,162 L74,164 L72,166 L70,168 L68,170 L66,172 L64,174 L62,176 L60,178 L58,180 L56,182 L54,184 L52,186 L50,188 L48,190 L46,192 L44,194 L42,196 L40,198 L38,200 L36,202 L34,204 L32,206 L30,208 L28,210 L26,212 L24,214 L22,216 L20,218 L18,220 L16,222 L14,224 L12,226 L10,228 L8,230 L6,232 L4,234 L2,236 L0,238 L0,240 L2,242 L4,244 L6,246 L8,248 L10,250 L12,252 L14,254 L16,256 L18,258 L20,260 L22,262 L24,264 L26,266 L28,268 L30,270 L32,272 L34,274 L36,276 L38,278 L40,280 L42,282 L44,284 L46,286 L48,288 L50,290 L52,292 L54,294 L56,296 L58,298 L60,300 L62,302 L64,304 L66,306 L68,308 L70,310 L72,312 L74,314 L76,316 L78,318 L80,320 L82,322 L84,324 L86,326 L88,328 L90,330 L92,332 L94,334 L96,336 L98,338 L100,340 L102,342 L104,344 L106,346 L108,348 L110,350 L112,352 L114,354 L116,356 L118,358 L120,360 L122,362 L124,364 L126,366 L128,368 L130,370 L132,372 L134,374 L136,376 L138,378 L140,380 L142,382 L144,384 L146,386 L148,388 L150,390 L152,392 L154,394 L156,396 L158,398 L160,400 L162,402 L164,404 L166,406 L168,408 L170,410 L172,412 L174,414 L176,416 L178,418 L180,420 L182,422 L184,424 L186,426 L188,428 L190,430 L192,432 L194,434 L196,436 L198,438 L200,440 L202,442 L204,444 L206,446 L208,448 L210,450 L212,452 L214,454 L216,456 L218,458 L220,460 L222,462 L224,464 L226,466 L228,468 L230,470 L232,472 L234,474 L236,476 L238,478 L240,480 L242,482 L244,484 L246,486 L248,488 L250,490 L252,492 L254,494 L256,496 L258,498 L260,500 L262,502 L264,504 L266,506 L268,508 L270,510 L272,512" 
    fill="url(#landGradient)" filter="url(#glow)" />

  <!-- South America with precise boundaries -->
  <path d="M235,230 L233,233 L231,236 L229,239 L227,242 L225,245 L223,248 L221,251 L219,254 L217,257 L215,260 L213,263 L211,266 L209,269 L207,272 L205,275 L203,278 L201,281 L199,284 L197,287 L195,290 L193,293 L191,296 L189,299 L187,302 L185,305 L183,308 L181,311 L179,314 L177,317 L175,320 L173,323 L171,326 L169,329 L167,332 L165,335 L163,338 L161,341 L159,344 L157,347 L155,350 L153,353 L151,356 L149,359 L147,362 L145,365 L143,368 L141,371 L139,374 L137,377 L135,380 L133,383 L131,386 L129,389 L127,392 L125,395 L123,398 L121,401 L119,404 L117,407 L115,410 L113,413 L111,416 L109,419 L107,422 L105,425 L103,428 L101,431 L99,434 L97,437 L95,440 L93,443 L91,446 L89,449 L87,452 L85,455 L83,458 L81,461 L79,464 L77,467 L75,470 L73,473 L71,476 L69,479 L67,482 L65,485 L63,488 L61,491 L59,494 L57,497 L55,500 L53,503 L51,506 L49,509 L47,512" 
    fill="url(#landGradient)" filter="url(#glow)" />

  <!-- Europe with precise boundaries -->
  <path d="M520,120 L518,122 L516,124 L514,126 L512,128 L510,130 L508,132 L506,134 L504,136 L502,138 L500,140 L498,142 L496,144 L494,146 L492,148 L490,150 L488,152 L486,154 L484,156 L482,158 L480,160 L478,162 L476,164 L474,166 L472,168 L470,170 L468,172 L466,174 L464,176 L462,178 L460,180 L458,182 L456,184 L454,186 L452,188 L450,190 L448,192 L446,194 L444,196 L442,198 L440,200 L438,202 L436,204 L434,206 L432,208 L430,210 L428,212 L426,214 L424,216 L422,218 L420,220 L418,222 L416,224 L414,226 L412,228 L410,230 L408,232 L406,234 L404,236 L402,238 L400,240 L398,242 L396,244 L394,246 L392,248 L390,250 L388,252 L386,254 L384,256 L382,258 L380,260 L378,262 L376,264 L374,266 L372,268 L370,270 L368,272 L366,274 L364,276 L362,278 L360,280 L358,282 L356,284 L354,286 L352,288 L350,290 L348,292 L346,294 L344,296 L342,298 L340,300" 
    fill="url(#landGradient)" filter="url(#glow)" />

  <!-- Africa with precise boundaries -->
  <path d="M520,280 L518,282 L516,284 L514,286 L512,288 L510,290 L508,292 L506,294 L504,296 L502,298 L500,300 L498,302 L496,304 L494,306 L492,308 L490,310 L488,312 L486,314 L484,316 L482,318 L480,320 L478,322 L476,324 L474,326 L472,328 L470,330 L468,332 L466,334 L464,336 L462,338 L460,340 L458,342 L456,344 L454,346 L452,348 L450,350 L448,352 L446,354 L444,356 L442,358 L440,360 L438,362 L436,364 L434,366 L432,368 L430,370 L428,372 L426,374 L424,376 L422,378 L420,380 L418,382 L416,384 L414,386 L412,388 L410,390 L408,392 L406,394 L404,396 L402,398 L400,400 L398,402 L396,404 L394,406 L392,408 L390,410 L388,412 L386,414 L384,416 L382,418 L380,420 L378,422 L376,424 L374,426 L372,428 L370,430 L368,432 L366,434 L364,436 L362,438 L360,440" 
    fill="url(#landGradient)" filter="url(#glow)" />

  <!-- Asia with precise boundaries -->
  <path d="M700,180 L698,182 L696,184 L694,186 L692,188 L690,190 L688,192 L686,194 L684,196 L682,198 L680,200 L678,202 L676,204 L674,206 L672,208 L670,210 L668,212 L666,214 L664,216 L662,218 L660,220 L658,222 L656,224 L654,226 L652,228 L650,230 L648,232 L646,234 L644,236 L642,238 L640,240 L638,242 L636,244 L634,246 L632,248 L630,250 L628,252 L626,254 L624,256 L622,258 L620,260 L618,262 L616,264 L614,266 L612,268 L610,270 L608,272 L606,274 L604,276 L602,278 L600,280 L598,282 L596,284 L594,286 L592,288 L590,290 L588,292 L586,294 L584,296 L582,298 L580,300 L578,302 L576,304 L574,306 L572,308 L570,310 L568,312 L566,314 L564,316 L562,318 L560,320 L558,322 L556,324 L554,326 L552,328 L550,330 L548,332 L546,334 L544,336 L542,338 L540,340 L538,342 L536,344 L534,346 L532,348 L530,350 L528,352 L526,354 L524,356 L522,358 L520,360 L518,362 L516,364 L514,366 L512,368 L510,370 L508,372 L506,374 L504,376 L502,378 L500,380" 
    fill="url(#landGradient)" filter="url(#glow)" />

  <!-- Australia with precise boundaries -->
  <path d="M800,350 L798,352 L796,354 L794,356 L792,358 L790,360 L788,362 L786,364 L784,366 L782,368 L780,370 L778,372 L776,374 L774,376 L772,378 L770,380 L768,382 L766,384 L764,386 L762,388 L760,390 L758,392 L756,394 L754,396 L752,398 L750,400 L748,402 L746,404 L744,406 L742,408 L740,410 L738,412 L736,414 L734,416 L732,418 L730,420 L728,422 L726,424 L724,426 L722,428 L720,430 L718,432 L716,434 L714,436 L712,438 L710,440 L708,442 L706,444 L704,446 L702,448 L700,450" 
    fill="url(#landGradient)" filter="url(#glow)" />

  <!-- Antarctica with precise boundaries -->
  <path d="M512,480 L510,482 L508,484 L506,486 L504,488 L502,490 L500,492 L498,494 L496,496 L494,498 L492,500 L490,502 L488,504 L486,506 L484,508 L482,510 L480,512" 
    fill="url(#landGradient)" filter="url(#glow)" />

  <!-- Greenland with precise boundaries -->
  <path d="M350,60 L348,62 L346,64 L344,66 L342,68 L340,70 L338,72 L336,74 L334,76 L332,78 L330,80 L328,82 L326,84 L324,86 L322,88 L320,90 L318,92 L316,94 L314,96 L312,98 L310,100 L308,102 L306,104 L304,106 L302,108 L300,110 L298,112 L296,114 L294,116 L292,118 L290,120 L288,122 L286,124 L284,126 L282,128 L280,130" 
    fill="url(#landGradient)" filter="url(#glow)" />

  <!-- Indonesia and Pacific Islands with precise boundaries -->
  <path d="M780,280 L778,282 L776,284 L774,286 L772,288 L770,290 L768,292 L766,294 L764,296 L762,298 L760,300 L758,302 L756,304 L754,306 L752,308 L750,310 L748,312 L746,314 L744,316 L742,318 L740,320 L738,322 L736,324 L734,326 L732,328 L730,330" 
    fill="url(#landGradient)" filter="url(#glow)" />

  <!-- Additional islands and details with precise boundaries -->
  <!-- Japan -->
  <path d="M770,230 C775,225 780,220 785,215 C790,210 795,205 800,200" 
    fill="url(#landGradient)" filter="url(#glow)" />

  <!-- Philippines -->
  <path d="M800,240 C802,238 804,236 806,234 C808,232 810,230 812,228" 
    fill="url(#landGradient)" filter="url(#glow)" />

  <!-- Canada Arctic -->
  <path d="M300,120 C305,115 310,110 315,105 C320,100 325,95 330,90" 
    fill="url(#landGradient)" filter="url(#glow)" />

  <!-- Scandinavia -->
  <path d="M510,70 C512,68 514,66 516,64 C518,62 520,60 522,58" 
    fill="url(#landGradient)" filter="url(#glow)" />

  <!-- Madagascar -->
  <path d="M600,330 C602,328 604,326 606,324 C608,322 610,320 612,318" 
    fill="url(#landGradient)" filter="url(#glow)" />

  <!-- New Zealand -->
  <path d="M830,300 C832,298 834,296 836,294 C838,292 840,290 842,288" 
    fill="url(#landGradient)" filter="url(#glow)" />
</svg>